# xmcd CD database file
#
# Track frame offsets:
#	150
#	13470
#	29077
#	42555
#	67682
#	84562
#	100075
#	109457
#	125757
#	140187
#
# Disc length: 2060 seconds
#
# Revision: 1
# Processed by: cddbd v1.5.2PL0 Copyright (c) Steve Scherf et al.
# Submitted via: CDex 1.70beta2
#
DISCID=97080a0a
DTITLE=70YoB-35-52 - 70 Years of Broadway - 1935 - 52
DYEAR=1900
DGENRE=Showtunes
TTITLE0=Porgy and bess - It ain't Necessarilly so - 1935
TTITLE1=Porgy and Bess - There's a boat That's Leavin' Soon for New York - 1935
TTITLE2=Knickerbocker Holiday - September Song - 1938 
TTITLE3=Oklahoma - Oh, what a beautiful Morning (medley) - 1934
TTITLE4=Carousel - Carousel Waltz - 1945
TTITLE5=On the Town - New york, new york - 1945
TTITLE6=On The Town - Wunderbar - 1948
TTITLE7=South Pacific - Some enchanted evening - 1949
TTITLE8=The King and I - Hello Young lovers - 1951
TTITLE9=Wish you were here - Everybody loves somebody - 1952
EXTD=
EXTT0=
EXTT1=
EXTT2=
EXTT3=
EXTT4=
EXTT5=
EXTT6=
EXTT7=
EXTT8=
EXTT9=
PLAYORDER=
